<svg xmlns="http://www.w3.org/2000/svg" class="companion-soft-pet " style="--pet-walk-cycle:1s" viewBox="0 0 512 512" width="256" height="256" aria-hidden="true" data-species="bunny" data-gait="hop" data-life-stage="grown" data-art-version="pet-form-v1" data-form-id="bunny_adventurer_compact_v1" fill="#FFF4DD" stroke="#5B3D45" stroke-width="10" stroke-linecap="round" stroke-linejoin="round"><ellipse data-layer="groundShadow" cx="256" cy="448" rx="115" ry="15" fill="#5B3D45" opacity=".15" stroke="none"></ellipse><g><g transform="translate(0 0) scale(1)"><g data-layer="root" class="pet-art-root"><g data-layer="formNativeContour" fill="#FFBD77" stroke-width="7"></g><g data-part="wings" data-step="4" data-variant="neutral" fill="#FFBD77"><g data-layer="wingsFar" transform="translate(139 319) scale(1 1)"><g class="pet-art-wings" style="transform-origin:0px 0px"><path d="M0 0Q-38-122-95-87Q-140-42-64 7Q-96 56-42 47Z"></path><path d="M-5 3Q-20-2-30-15" fill="none" stroke-width="8"></path></g></g><g data-layer="wingsNear" transform="translate(373 319) scale(-1 1)"><g class="pet-art-wings" style="transform-origin:0px 0px"><path d="M0 0Q-38-122-95-87Q-140-42-64 7Q-96 56-42 47Z"></path><path d="M-5 3Q-20-2-30-15" fill="none" stroke-width="8"></path></g></g></g><g data-layer="tailBack" transform="translate(373 378)"><g class="pet-art-tail" style="transform-origin:0px 0px"><path d="M0-6C24-38 56-20 45 6C30 27 9 21 0-6Z" fill="#FFBD77"></path><path data-layer="tailTuft" d="M27-20Q13-42 29-49Q38-67 49-48Q72-52 62-31L52-18Z" fill="#FFBD77"></path></g></g><g data-layer="hindlimbs" fill="#FFF4DD"><g class="pet-art-leg far"><path data-layer="hindlimbFar" d="M172 404Q141 416 155 445H231V413Z"></path></g><g class="pet-art-leg near"><path data-layer="hindlimbNear" d="M281 413V445H357Q371 416 340 404Z"></path></g></g><path data-layer="body" d="M167 310Q135 343 138 383L156 414L180 438H332L356 414L374 383Q377 343 345 310Z"></path><ellipse data-layer="bodyPatternClip" cx="260" cy="370" rx="62" ry="51" fill="#FFF4DD" stroke="none" opacity=".65"></ellipse><g data-layer="formSignature" fill="#FFBD77" stroke-width="6"><rect x="212" y="346" width="88" height="49" rx="8"></rect><path d="M226 361H242M270 361H285M226 380H285" fill="none"></path></g><g data-layer="wardrobeBody" fill="#FFBD77" stroke-width="7"></g><g data-layer="ears" transform="translate(-32 7) scale(1.125 1)" fill="#FFBD77"><g data-layer="bunnyEars"><path d="M175 194C139 138 147 57 170 56C197 57 207 130 209 163Z"></path><path d="M302 165C307 108 331 74 352 92C366 104 351 123 337 126Q338 167 340 195Z"></path></g></g><path data-layer="head" d="M141 231Q145 166 256 156Q367 166 371 231L382 272L361 311Q327 347 256 344Q185 347 151 311L130 272Z"></path><g data-layer="forelimbs" fill="#FFF4DD"><g transform="translate(139 350) scale(1 1)" data-layer="forelimbFar"><g class="pet-art-paw far" style="transform-origin:0px 0px"><path d="M0 0C-25-2-22 21-33 26C-45 33-37 47-23 44C-22 60-3 65 4 49C23 58 35 42 22 29C29 13 16 0 0 0Z"></path><path d="M-8 29L-7 37M6 28L8 35" fill="none" stroke-width="6"></path></g></g><g transform="translate(373 350) scale(-1 1)" data-layer="forelimbNear"><g class="pet-art-paw near" style="transform-origin:0px 0px"><path d="M0 0C-25-2-22 21-33 26C-45 33-37 47-23 44C-22 60-3 65 4 49C23 58 35 42 22 29C29 13 16 0 0 0Z"></path><path d="M-8 29L-7 37M6 28L8 35" fill="none" stroke-width="6"></path></g></g></g><g data-layer="face" stroke="#41334D" fill="#41334D"><g class="pet-art-eyes"><g><ellipse cx="211" cy="264" rx="10" ry="15" stroke="none"></ellipse><circle cx="208" cy="258" r="3.5" fill="#FFF4DD" stroke="none"></circle></g><g><ellipse cx="305" cy="264" rx="10" ry="15" stroke="none"></ellipse><circle cx="302" cy="258" r="3.5" fill="#FFF4DD" stroke="none"></circle></g></g><path d="M245 293Q259 306 274 293" fill="none" stroke-width="7"></path></g><g data-layer="cheeks" fill="#F6A4B6" stroke="none" opacity=".8"><ellipse cx="187" cy="291" rx="18" ry="9"></ellipse><ellipse cx="330" cy="291" rx="18" ry="9"></ellipse></g><path data-layer="highlight" d="M170 224Q176 191 198 184" fill="none" stroke="#FFF4DD" stroke-width="12" opacity=".8"></path><g data-layer="wardrobeHead" fill="#FFBD77" stroke-width="7"></g><g data-layer="formNativeSignature" fill="#FFBD77" stroke-width="6"></g></g></g></g></svg>