<svg xmlns="http://www.w3.org/2000/svg" class="companion-soft-pet " style="--pet-walk-cycle:0.85s" viewBox="0 0 512 512" width="256" height="256" aria-hidden="true" data-species="cat" data-gait="stroll" data-life-stage="grown" data-art-version="pet-form-v1" data-form-id="cat_celestial_agile_v1" fill="#FFF4DD" stroke="#5B3D45" stroke-width="10" stroke-linecap="round" stroke-linejoin="round"><ellipse data-layer="groundShadow" cx="256" cy="448" rx="115" ry="15" fill="#5B3D45" opacity=".15" stroke="none"></ellipse><g><g transform="translate(0 0) scale(1)"><g data-layer="root" class="pet-art-root"><g data-layer="formNativeContour" fill="#C5B6E8" stroke-width="7"><g transform="translate(156 284) scale(1 1)"><path d="M0-12Q-38-11-35 30Q-13 13 4 24Z"></path></g><g transform="translate(356 284) scale(-1 1)"><path d="M0-12Q-38-11-35 30Q-13 13 4 24Z"></path></g></g><g data-part="wings" data-step="4" data-variant="neutral" fill="#C5B6E8"><g data-layer="wingsFar" transform="translate(176 314) scale(1 1)"><g class="pet-art-wings" style="transform-origin:0px 0px"><path d="M0 0Q-112-96-88-49Q-137-43-105-7Q-132 25-76 27Q-76 56-34 30Z"></path><path d="M-5 3Q-20-2-30-15" fill="none" stroke-width="8"></path></g></g><g data-layer="wingsNear" transform="translate(336 314) scale(-1 1)"><g class="pet-art-wings" style="transform-origin:0px 0px"><path d="M0 0Q-112-96-88-49Q-137-43-105-7Q-132 25-76 27Q-76 56-34 30Z"></path><path d="M-5 3Q-20-2-30-15" fill="none" stroke-width="8"></path></g></g></g><g data-layer="tailBack" transform="translate(336 378)"><g class="pet-art-tail" style="transform-origin:0px 0px"><path d="M0 0Q81 16 69-63Q45-34 29-41Q64-19 44 8Q22 23 0 0Z" fill="#C5B6E8"></path></g></g><g data-layer="hindlimbs" fill="#FFF4DD"><g class="pet-art-leg far"><path data-layer="hindlimbFar" d="M209 405Q181 414 189 442H233V409Z"></path></g><g class="pet-art-leg near"><path data-layer="hindlimbNear" d="M279 409V442H323Q331 414 303 405Z"></path></g></g><path data-layer="body" d="M210 300Q167 343 186 382Q179 423 217 438H296Q334 423 325 382Q345 343 302 300Z"></path><ellipse data-layer="bodyPatternClip" cx="260" cy="370" rx="62" ry="51" fill="#FFF4DD" stroke="none" opacity=".65"></ellipse><g data-layer="formSignature" fill="#C5B6E8" stroke-width="6"><circle cx="256" cy="370" r="33" fill="#FFF4DD"></circle><path d="M256 348L263 363L280 370L263 377L256 393L249 377L232 370L249 363Z"></path></g><g data-layer="wardrobeBody" fill="#C5B6E8" stroke-width="7"></g><g data-layer="ears" transform="translate(59.076923076923066 -4) scale(0.7692307692307693 1)" fill="#C5B6E8"><path d="M152 216L151 132Q154 109 174 124L224 166Z"></path><path d="M291 164L338 122Q357 109 360 133L361 218Z"></path></g><path data-layer="head" d="M170 222Q188 137 256 145Q323 135 342 222L358 269L329 298Q304 333 256 340Q210 333 184 298L155 269Z"></path><g data-layer="forelimbs" fill="#FFF4DD"><g transform="translate(176 345) scale(1 1)" data-layer="forelimbFar"><g class="pet-art-paw far" style="transform-origin:0px 0px"><path d="M0 0C-25-2-22 21-33 26C-45 33-37 47-23 44C-22 60-3 65 4 49C23 58 35 42 22 29C29 13 16 0 0 0Z"></path><path d="M-8 29L-7 37M6 28L8 35" fill="none" stroke-width="6"></path></g></g><g transform="translate(336 345) scale(-1 1)" data-layer="forelimbNear"><g class="pet-art-paw near" style="transform-origin:0px 0px"><path d="M0 0C-25-2-22 21-33 26C-45 33-37 47-23 44C-22 60-3 65 4 49C23 58 35 42 22 29C29 13 16 0 0 0Z"></path><path d="M-8 29L-7 37M6 28L8 35" fill="none" stroke-width="6"></path></g></g></g><g data-layer="face" stroke="#41334D" fill="#41334D"><g class="pet-art-eyes"><g><ellipse cx="211" cy="264" rx="10" ry="15" stroke="none"></ellipse><circle cx="208" cy="258" r="3.5" fill="#FFF4DD" stroke="none"></circle></g><g><ellipse cx="305" cy="264" rx="10" ry="15" stroke="none"></ellipse><circle cx="302" cy="258" r="3.5" fill="#FFF4DD" stroke="none"></circle></g></g><path d="M245 293Q259 306 274 293" fill="none" stroke-width="7"></path></g><g data-layer="cheeks" fill="#F6A4B6" stroke="none" opacity=".8"><ellipse cx="187" cy="291" rx="18" ry="9"></ellipse><ellipse cx="330" cy="291" rx="18" ry="9"></ellipse></g><path data-layer="highlight" d="M170 224Q176 191 198 184" fill="none" stroke="#FFF4DD" stroke-width="12" opacity=".8"></path><g data-layer="wardrobeHead" fill="#C5B6E8" stroke-width="7"></g><g data-layer="formNativeSignature" fill="#C5B6E8" stroke-width="6"></g></g></g></g></svg>