<svg xmlns="http://www.w3.org/2000/svg" class="companion-soft-pet " style="--pet-walk-cycle:0.7s" viewBox="0 0 512 512" width="256" height="256" aria-hidden="true" data-species="dog" data-gait="trot" data-life-stage="grown" data-art-version="pet-form-v1" data-form-id="dog_adventurer_agile_v1" fill="#FFBD77" stroke="#5B3D45" stroke-width="10" stroke-linecap="round" stroke-linejoin="round"><ellipse data-layer="groundShadow" cx="256" cy="448" rx="115" ry="15" fill="#5B3D45" opacity=".15" stroke="none"></ellipse><g><g transform="translate(0 0) scale(1)"><g data-layer="root" class="pet-art-root"><g data-layer="formNativeContour" fill="#FFBD77" stroke-width="7"><g transform="translate(139 285) scale(1 1)"><path d="M0-13L-24-3L-30 24L-9 18L4 31Z"></path></g><g transform="translate(373 285) scale(-1 1)"><path d="M0-13L-24-3L-30 24L-9 18L4 31Z"></path></g></g><g data-layer="tailBack" transform="translate(353 378)"><g class="pet-art-tail" style="transform-origin:0px 0px"><path d="M0 0Q80 18 67-55Q46-70 43-44L36-53L27-46L31-25Q29-10 13-15Z" fill="#FFBD77"></path></g></g><g data-layer="hindlimbs" fill="#FFBD77"><g class="pet-art-leg far"><path data-layer="hindlimbFar" d="M209 405Q181 414 189 442H233V409Z"></path></g><g class="pet-art-leg near"><path data-layer="hindlimbNear" d="M279 409V442H323Q331 414 303 405Z"></path></g></g><path data-layer="body" d="M192 310Q169 340 176 371L188 391L199 438H313L324 391L336 371Q343 340 320 310Z"></path><ellipse data-layer="bodyPatternClip" cx="260" cy="370" rx="62" ry="51" fill="#FFF4DD" stroke="none" opacity=".65"></ellipse><g data-layer="formSignature" fill="#FFBD77" stroke-width="6"><rect x="212" y="346" width="88" height="49" rx="8"></rect><path d="M226 361H242M270 361H285M226 380H285" fill="none"></path></g><g data-layer="wardrobeBody" fill="#FFBD77" stroke-width="7"></g><g data-layer="ears" transform="translate(17.230769230769226 2) scale(0.9326923076923077 1)" fill="#FFBD77"><path d="M167 185C129 134 109 155 110 208L123 266Q154 290 178 239Z"></path><path d="M327 178C363 136 391 165 389 215L375 266Q345 281 328 238Z"></path></g><path data-layer="head" d="M161 232Q159 163 256 151Q353 163 351 232L369 273L347 315Q302 347 256 340Q210 347 165 315L143 273Z"></path><g data-part="horns" data-step="4" data-variant="neutral" fill="#FFBD77"><g data-layer="hornsFar" transform="translate(195.375 151) scale(1 1)"><g class="pet-art-horns" style="transform-origin:0px 0px"><path d="M0 0C-29-23-38-77-21-77C-7-76-17-47-2-39C-9-89 15-102 20-83C22-70 7-48 17-29C35-57 51-55 47-37L20 0Z"></path><path d="M1-8L5-28" fill="none" stroke-width="8"></path></g></g><g data-layer="hornsNear" transform="translate(316.625 151) scale(-1 1)"><g class="pet-art-horns" style="transform-origin:0px 0px"><path d="M0 0C-29-23-38-77-21-77C-7-76-17-47-2-39C-9-89 15-102 20-83C22-70 7-48 17-29C35-57 51-55 47-37L20 0Z"></path><path d="M1-8L5-28" fill="none" stroke-width="8"></path></g></g></g><g data-layer="forelimbs" fill="#FFBD77"><g transform="translate(159 346) scale(1 1)" data-layer="forelimbFar"><g class="pet-art-paw far" style="transform-origin:0px 0px"><path d="M0 0C-25-2-22 21-33 26C-45 33-37 47-23 44C-22 60-3 65 4 49C23 58 35 42 22 29C29 13 16 0 0 0Z"></path><path d="M-8 29L-7 37M6 28L8 35" fill="none" stroke-width="6"></path></g></g><g transform="translate(353 346) scale(-1 1)" data-layer="forelimbNear"><g class="pet-art-paw near" style="transform-origin:0px 0px"><path d="M0 0C-25-2-22 21-33 26C-45 33-37 47-23 44C-22 60-3 65 4 49C23 58 35 42 22 29C29 13 16 0 0 0Z"></path><path d="M-8 29L-7 37M6 28L8 35" fill="none" stroke-width="6"></path></g></g></g><g data-layer="face" stroke="#41334D" fill="#41334D"><g class="pet-art-eyes"><g><ellipse cx="211" cy="264" rx="10" ry="15" stroke="none"></ellipse><circle cx="208" cy="258" r="3.5" fill="#FFF4DD" stroke="none"></circle></g><g><ellipse cx="305" cy="264" rx="10" ry="15" stroke="none"></ellipse><circle cx="302" cy="258" r="3.5" fill="#FFF4DD" stroke="none"></circle></g></g><ellipse data-layer="muzzle" cx="260" cy="290" rx="33" ry="23" fill="#FFF4DD" stroke="none"></ellipse><ellipse cx="260" cy="282" rx="13" ry="8" stroke="none"></ellipse><path d="M260 292q-12 17-23 3M260 292q12 17 23 3" fill="none" stroke-width="6"></path></g><g data-layer="cheeks" fill="#F6A4B6" stroke="none" opacity=".8"><ellipse cx="187" cy="291" rx="18" ry="9"></ellipse><ellipse cx="330" cy="291" rx="18" ry="9"></ellipse></g><path data-layer="highlight" d="M170 224Q176 191 198 184" fill="none" stroke="#FFF4DD" stroke-width="12" opacity=".8"></path><g data-layer="wardrobeHead" fill="#FFBD77" stroke-width="7"></g><g data-layer="formNativeSignature" fill="#FFBD77" stroke-width="6"></g></g></g></g></svg>