<svg xmlns="http://www.w3.org/2000/svg" class="companion-soft-pet " style="--pet-walk-cycle:0.8s" viewBox="0 0 512 512" width="256" height="256" aria-hidden="true" data-species="duck" data-gait="waddle" data-life-stage="grown" data-art-version="pet-form-v1" data-form-id="duck_nature_compact_v1" fill="#FFF4DD" stroke="#5B3D45" stroke-width="10" stroke-linecap="round" stroke-linejoin="round"><ellipse data-layer="groundShadow" cx="256" cy="448" rx="115" ry="15" fill="#5B3D45" opacity=".15" stroke="none"></ellipse><g><g transform="translate(0 0) scale(1)"><g data-layer="root" class="pet-art-root"><g data-layer="formNativeContour" fill="#A8D9BE" stroke-width="7"><g transform="translate(131 349) scale(1 1)"><path d="M5-20Q-36-37-28-3L-44 3L-22 14L-27 32L5 20Z"></path></g><g transform="translate(381 349) scale(-1 1)"><path d="M5-20Q-36-37-28-3L-44 3L-22 14L-27 32L5 20Z"></path></g></g><g data-part="wings" data-step="4" data-variant="neutral" fill="#A8D9BE"><g data-layer="wingsFar" transform="translate(139 319) scale(1 1)"><g class="pet-art-wings" style="transform-origin:0px 0px"><path d="M0 0Q-112-96-88-49Q-137-43-105-7Q-132 25-76 27Q-76 56-34 30Z"></path><path d="M-5 3Q-20-2-30-15" fill="none" stroke-width="8"></path></g></g><g data-layer="wingsNear" transform="translate(373 319) scale(-1 1)"><g class="pet-art-wings" style="transform-origin:0px 0px"><path d="M0 0Q-112-96-88-49Q-137-43-105-7Q-132 25-76 27Q-76 56-34 30Z"></path><path d="M-5 3Q-20-2-30-15" fill="none" stroke-width="8"></path></g></g></g><g data-layer="hindlimbs" fill="#FFBD77"><g class="pet-art-leg far"><path data-layer="hindlimbFar" d="M171 407L143 437L160 445L180 435L200 445L223 440L218 410Z"></path></g><g class="pet-art-leg near"><path data-layer="hindlimbNear" d="M294 410L289 440L312 445L332 435L352 445L369 437L341 407Z"></path></g></g><path data-layer="body" d="M160 302Q130 326 125 367L134 404Q168 444 263 439Q354 444 380 396L390 367L371 331L350 301Z"></path><ellipse data-layer="bodyPatternClip" cx="260" cy="370" rx="62" ry="51" fill="#FFF4DD" stroke="none" opacity=".65"></ellipse><g data-layer="formSignature" fill="#A8D9BE" stroke-width="6"><path d="M255 402Q211 377 217 344Q248 342 257 371Q271 341 298 351Q299 383 255 402Z"></path><path d="M256 367V405" fill="none"></path></g><g data-layer="wardrobeBody" fill="#A8D9BE" stroke-width="7"></g><path data-layer="head" d="M151 255Q132 204 172 170Q213 140 260 152Q342 148 363 217L369 263Q359 322 292 334Q200 351 151 255Z"></path><g data-layer="crest" transform="translate(256 150)" fill="#A8D9BE"><path d="M-30 0Q-55-35-35-47Q-17-58-9-25Q-8-68 13-59Q29-54 21-26Q47-51 54-29Q61-7 30 0Z"></path></g><g data-layer="forelimbs" fill="#FFF4DD"><g transform="translate(139 350) scale(1 1)" data-layer="forelimbFar"><g class="pet-art-paw far" style="transform-origin:0px 0px"><path d="M0 0Q-41 8-35 53L-22 44L-17 60L-2 49L5 55L19 29Z"></path><path d="M-8 29L-7 37M6 28L8 35" fill="none" stroke-width="6"></path></g></g><g transform="translate(373 350) scale(-1 1)" data-layer="forelimbNear"><g class="pet-art-paw near" style="transform-origin:0px 0px"><path d="M0 0Q-41 8-35 53L-22 44L-17 60L-2 49L5 55L19 29Z"></path><path d="M-8 29L-7 37M6 28L8 35" fill="none" stroke-width="6"></path></g></g></g><g data-layer="face" stroke="#41334D" fill="#41334D"><g class="pet-art-eyes"><g><ellipse cx="211" cy="264" rx="10" ry="15" stroke="none"></ellipse><circle cx="208" cy="258" r="3.5" fill="#FFF4DD" stroke="none"></circle></g><g><ellipse cx="305" cy="264" rx="10" ry="15" stroke="none"></ellipse><circle cx="302" cy="258" r="3.5" fill="#FFF4DD" stroke="none"></circle></g></g><path data-layer="beak" d="M232 281Q262 272 290 284Q290 304 261 306Q233 306 232 281Z" fill="#FFBD77" stroke="#5B3D45" stroke-width="8"></path></g><g data-layer="cheeks" fill="#F6A4B6" stroke="none" opacity=".8"><ellipse cx="187" cy="291" rx="18" ry="9"></ellipse><ellipse cx="330" cy="291" rx="18" ry="9"></ellipse></g><path data-layer="highlight" d="M170 224Q176 191 198 184" fill="none" stroke="#FFF4DD" stroke-width="12" opacity=".8"></path><g data-layer="wardrobeHead" fill="#A8D9BE" stroke-width="7"></g><g data-layer="formNativeSignature" fill="#A8D9BE" stroke-width="6"></g></g></g></g></svg>