<svg xmlns="http://www.w3.org/2000/svg" class="companion-soft-pet " style="--pet-walk-cycle:1.7s" viewBox="0 0 512 512" width="256" height="256" aria-hidden="true" data-species="spirit" data-gait="float" data-life-stage="grown" data-art-version="pet-form-v1" data-form-id="spirit_celestial_compact_v1" fill="#C5B6E8" stroke="#5B3D45" stroke-width="10" stroke-linecap="round" stroke-linejoin="round"><ellipse data-layer="groundShadow" cx="256" cy="448" rx="115" ry="15" fill="#5B3D45" opacity=".15" stroke="none"></ellipse><g><g transform="translate(0 0) scale(1)"><g data-layer="root" class="pet-art-root"><g data-layer="formNativeContour" fill="#C5B6E8" stroke-width="7"><path d="M198 416Q208 454 256 432Q301 454 316 416L290 419Q256 447 222 419Z"></path></g><g data-part="wings" data-step="4" data-variant="neutral" fill="#C5B6E8"><g data-layer="wingsFar" transform="translate(148 316) scale(1 1)"><g class="pet-art-wings" style="transform-origin:0px 0px"><path d="M0 0Q-27-114-92-83Q-128-41-64 10Q-94 59-34 38Z"></path><path d="M-5 3Q-20-2-30-15" fill="none" stroke-width="8"></path></g></g><g data-layer="wingsNear" transform="translate(364 316) scale(-1 1)"><g class="pet-art-wings" style="transform-origin:0px 0px"><path d="M0 0Q-27-114-92-83Q-128-41-64 10Q-94 59-34 38Z"></path><path d="M-5 3Q-20-2-30-15" fill="none" stroke-width="8"></path></g></g></g><g data-layer="tailBack" transform="translate(364 378)"><g class="pet-art-tail" style="transform-origin:0px 0px"><path d="M0 0Q64 42 67-17Q65-46 42-28Q25-11 56-5Q55 24 9 9Z" fill="#C5B6E8"></path></g></g><g data-layer="hindlimbs" fill="#C5B6E8"><g class="pet-art-leg far"><path data-layer="hindlimbFar" d="M172 404Q141 416 155 445H231V413Z"></path></g><g class="pet-art-leg near"><path data-layer="hindlimbNear" d="M281 413V445H357Q371 416 340 404Z"></path></g></g><path data-layer="body" d="M177 310Q128 345 148 391Q177 432 216 426L235 443L256 428L277 443L296 426Q335 432 364 391Q384 345 335 310Z"></path><ellipse data-layer="bodyPatternClip" cx="260" cy="370" rx="62" ry="51" fill="#FFF4DD" stroke="none" opacity=".65"></ellipse><g data-layer="formSignature" fill="#C5B6E8" stroke-width="6"><circle cx="256" cy="370" r="33" fill="#FFF4DD"></circle><path d="M256 348L263 363L280 370L263 377L256 393L249 377L232 370L249 363Z"></path></g><g data-layer="wardrobeBody" fill="#C5B6E8" stroke-width="7"></g><g data-layer="ears" transform="translate(-9.846153846153868 1) scale(1.0384615384615385 1)" fill="#C5B6E8"><g data-layer="leafEars"><path d="M169 205C109 197 107 149 119 118C166 117 198 144 194 182Z"></path><path d="M317 182C321 141 350 118 389 128C395 166 382 200 344 210Z"></path><path d="M132 141L172 181M374 149L338 187" fill="none" stroke-width="6"></path></g></g><path data-layer="head" d="M150 240Q145 169 256 150Q367 169 362 240L380 279Q363 327 311 332L282 348L256 339L230 348L201 332Q149 327 132 279Z"></path><path data-layer="leafSignature" d="M251 201Q222 188 229 172Q255 169 264 193Q283 170 298 182Q295 204 263 213Z" fill="#C5B6E8" stroke-width="6"></path><g data-layer="forelimbs" fill="#C5B6E8"><g transform="translate(148 347) scale(1 1)" data-layer="forelimbFar"><g class="pet-art-paw far" style="transform-origin:0px 0px"><path d="M0 0Q-50 10-39 56Q-16 62-11 45Q26 60 0 0Z"></path><path d="M-8 29L-7 37M6 28L8 35" fill="none" stroke-width="6"></path></g></g><g transform="translate(364 347) scale(-1 1)" data-layer="forelimbNear"><g class="pet-art-paw near" style="transform-origin:0px 0px"><path d="M0 0Q-50 10-39 56Q-16 62-11 45Q26 60 0 0Z"></path><path d="M-8 29L-7 37M6 28L8 35" fill="none" stroke-width="6"></path></g></g></g><g data-layer="face" stroke="#41334D" fill="#41334D"><g class="pet-art-eyes"><g><ellipse cx="211" cy="264" rx="10" ry="15" stroke="none"></ellipse><circle cx="208" cy="258" r="3.5" fill="#FFF4DD" stroke="none"></circle></g><g><ellipse cx="305" cy="264" rx="10" ry="15" stroke="none"></ellipse><circle cx="302" cy="258" r="3.5" fill="#FFF4DD" stroke="none"></circle></g></g><path d="M245 293Q259 306 274 293" fill="none" stroke-width="7"></path></g><g data-layer="cheeks" fill="#F6A4B6" stroke="none" opacity=".8"><ellipse cx="187" cy="291" rx="18" ry="9"></ellipse><ellipse cx="330" cy="291" rx="18" ry="9"></ellipse></g><path data-layer="highlight" d="M170 224Q176 191 198 184" fill="none" stroke="#FFF4DD" stroke-width="12" opacity=".8"></path><g data-layer="wardrobeHead" fill="#C5B6E8" stroke-width="7"></g><g data-layer="formNativeSignature" fill="#C5B6E8" stroke-width="6"></g></g></g></g></svg>