<svg xmlns="http://www.w3.org/2000/svg" class="companion-soft-pet" viewBox="0 0 512 512" width="256" height="256" aria-hidden="true" data-species="duck" data-art-version="pet-outline-v1" fill="#FFF4DD" stroke="#5B3D45" stroke-width="10" stroke-linecap="round" stroke-linejoin="round"><ellipse data-layer="groundShadow" cx="256" cy="448" rx="115" ry="15" fill="#5B3D45" opacity=".15" stroke="none"></ellipse><g data-layer="root" class="pet-art-root"><g data-layer="hindlimbs" fill="#FFBD77"><path data-layer="hindlimbFar" d="M194 411Q161 428 170 441H229L226 411Z"></path><path data-layer="hindlimbNear" d="M282 411L280 441H341Q352 427 320 411Z"></path></g><path data-layer="body" d="M172 291C146 324 122 355 143 398C162 439 311 451 356 410C392 378 367 323 333 294Z"></path><ellipse data-layer="bodyPatternClip" cx="260" cy="370" rx="62" ry="51" fill="#FFF4DD" stroke="none" opacity=".65"></ellipse><path data-layer="head" d="M166 269C141 221 168 151 238 149C308 140 357 183 354 238C355 299 312 326 253 325C213 325 181 305 166 269Z"></path><g data-layer="crest" transform="translate(256 149)" fill="#F6A4B6"><path d="M-30 0Q-55-35-35-47Q-17-58-9-25Q-8-68 13-59Q29-54 21-26Q47-51 54-29Q61-7 30 0Z"></path></g><g data-layer="forelimbs" fill="#FFF4DD"><g transform="translate(152 338) scale(1 1)" data-layer="forelimbFar"><g class="pet-art-paw"><path d="M0 0C-18 3-26 43-4 44C22 46 26 7 0 0Z"></path></g></g><g transform="translate(360 338) scale(-1 1)" data-layer="forelimbNear"><g class="pet-art-paw"><path d="M0 0C-18 3-26 43-4 44C22 46 26 7 0 0Z"></path></g></g></g><g data-layer="face" stroke="#5B3D45" fill="#5B3D45"><g class="pet-art-eyes"><g><ellipse cx="211" cy="264" rx="10" ry="15" stroke="none"></ellipse><circle cx="208" cy="258" r="3.5" fill="#FFF4DD" stroke="none"></circle></g><g><ellipse cx="305" cy="264" rx="10" ry="15" stroke="none"></ellipse><circle cx="302" cy="258" r="3.5" fill="#FFF4DD" stroke="none"></circle></g></g><path data-layer="beak" d="M232 281Q262 272 290 284Q290 304 261 306Q233 306 232 281Z" fill="#FFBD77" stroke="#5B3D45" stroke-width="8"></path></g><g data-layer="cheeks" fill="#F6A4B6" stroke="none" opacity=".8"><ellipse cx="187" cy="291" rx="18" ry="9"></ellipse><ellipse cx="330" cy="291" rx="18" ry="9"></ellipse></g><path data-layer="highlight" d="M170 224Q176 191 198 184" fill="none" stroke="#FFF4DD" stroke-width="12" opacity=".8"></path></g></svg>