<svg xmlns="http://www.w3.org/2000/svg" class="companion-soft-pet" viewBox="0 0 512 512" width="256" height="256" aria-hidden="true" data-species="dog" data-art-version="pet-outline-v1" fill="#FFBD77" stroke="#5B3D45" stroke-width="10" stroke-linecap="round" stroke-linejoin="round"><ellipse data-layer="groundShadow" cx="256" cy="448" rx="115" ry="15" fill="#5B3D45" opacity=".15" stroke="none"></ellipse><g data-layer="root" class="pet-art-root"><g data-layer="tailBack" transform="translate(352 378)"><path d="M0 0C45 31 104-1 72-44C74-65 48-71 40-51C18-58 18-33 37-24C51-13 25-12 14-20Z" fill="#F6A4B6"></path></g><g data-layer="hindlimbs" fill="#FFBD77"><path data-layer="hindlimbFar" d="M188 404C153 408 154 445 190 445H229V415Z"></path><path data-layer="hindlimbNear" d="M281 415V445H322C358 445 351 408 320 404Z"></path></g><path data-layer="body" d="M170 281C143 318 130 376 153 407C184 448 329 449 359 408C384 374 363 313 335 281Z"></path><ellipse data-layer="bodyPatternClip" cx="260" cy="370" rx="62" ry="51" fill="#FFF4DD" stroke="none" opacity=".65"></ellipse><g data-layer="ears" fill="#F6A4B6"><path d="M167 185C129 134 109 155 110 208L123 266Q154 290 178 239Z"></path><path d="M327 178C363 136 391 165 389 215L375 266Q345 281 328 238Z"></path></g><path data-layer="head" d="M143 248C142 175 191 145 257 149C327 145 374 185 370 258C365 320 316 343 255 340C191 343 142 317 143 248Z"></path><g data-layer="forelimbs" fill="#FFBD77"><g transform="translate(152 338) scale(1 1)" data-layer="forelimbFar"><g class="pet-art-paw"><path d="M0 0C-19-1-22 24-30 30C-36 41-23 48-15 40C-4 57 14 48 12 39C33 37 26 8 0 0Z"></path><path d="M-8 29L-7 37M6 28L8 35" fill="none" stroke-width="6"></path></g></g><g transform="translate(360 338) scale(-1 1)" data-layer="forelimbNear"><g class="pet-art-paw"><path d="M0 0C-19-1-22 24-30 30C-36 41-23 48-15 40C-4 57 14 48 12 39C33 37 26 8 0 0Z"></path><path d="M-8 29L-7 37M6 28L8 35" fill="none" stroke-width="6"></path></g></g></g><g data-layer="face" stroke="#5B3D45" fill="#5B3D45"><g class="pet-art-eyes"><g><ellipse cx="211" cy="264" rx="10" ry="15" stroke="none"></ellipse><circle cx="208" cy="258" r="3.5" fill="#FFF4DD" stroke="none"></circle></g><g><ellipse cx="305" cy="264" rx="10" ry="15" stroke="none"></ellipse><circle cx="302" cy="258" r="3.5" fill="#FFF4DD" stroke="none"></circle></g></g><ellipse data-layer="muzzle" cx="260" cy="290" rx="33" ry="23" fill="#FFF4DD" stroke="none"></ellipse><ellipse cx="260" cy="282" rx="13" ry="8" stroke="none"></ellipse><path d="M260 292q-12 17-23 3M260 292q12 17 23 3" fill="none" stroke-width="6"></path></g><g data-layer="cheeks" fill="#F6A4B6" stroke="none" opacity=".8"><ellipse cx="187" cy="291" rx="18" ry="9"></ellipse><ellipse cx="330" cy="291" rx="18" ry="9"></ellipse></g><path data-layer="highlight" d="M170 224Q176 191 198 184" fill="none" stroke="#FFF4DD" stroke-width="12" opacity=".8"></path></g></svg>