<svg xmlns="http://www.w3.org/2000/svg" class="companion-soft-pet" viewBox="0 0 512 512" width="256" height="256" aria-hidden="true" data-species="child" data-art-version="pet-outline-v1" fill="#F7D8BE" stroke="#5B3D45" stroke-width="10" stroke-linecap="round" stroke-linejoin="round"><ellipse data-layer="groundShadow" cx="256" cy="448" rx="115" ry="15" fill="#5B3D45" opacity=".15" stroke="none"></ellipse><g data-layer="root" class="pet-art-root"><g data-part="wings" data-step="4" data-variant="neutral" fill="#F6A4B6"><g data-layer="wingsFar" transform="translate(162 307) scale(1 1)"><g class="pet-art-wings"><path d="M0 0C-45-95-107-87-98-45C-135-33-127 1-103 9C-119 47-68 54-51 35C-29 47-6 27 0 0Z"></path><path d="M-5 3Q-20-2-30-15" fill="none" stroke-width="8"></path></g></g><g data-layer="wingsNear" transform="translate(350 307) scale(-1 1)"><g class="pet-art-wings"><path d="M0 0C-45-95-107-87-98-45C-135-33-127 1-103 9C-119 47-68 54-51 35C-29 47-6 27 0 0Z"></path><path d="M-5 3Q-20-2-30-15" fill="none" stroke-width="8"></path></g></g></g><g data-layer="tailBack" transform="translate(352 378)"><path d="M0 0C45 31 104-1 72-44C74-65 48-71 40-51C18-58 18-33 37-24C51-13 25-12 14-20Z" fill="#F6A4B6"></path></g><g data-layer="hindlimbs" fill="#F7D8BE"><path data-layer="hindlimbFar" d="M188 404C153 408 154 445 190 445H229V415Z"></path><path data-layer="hindlimbNear" d="M281 415V445H322C358 445 351 408 320 404Z"></path></g><path data-layer="body" d="M170 281C143 318 130 376 153 407C184 448 329 449 359 408C384 374 363 313 335 281Z"></path><ellipse data-layer="bodyPatternClip" cx="260" cy="370" rx="62" ry="51" fill="#FFF4DD" stroke="none" opacity=".65"></ellipse><g data-layer="ears" fill="#F6A4B6"><g data-layer="storybookEars"><circle cx="143" cy="258" r="21"></circle><circle cx="370" cy="258" r="21"></circle></g></g><path data-layer="head" d="M143 248C142 175 191 145 257 149C327 145 374 185 370 258C365 320 316 343 255 340C191 343 142 317 143 248Z"></path><path data-layer="storybookHair" d="M146 226C137 169 190 140 257 149C319 142 367 174 370 220Q330 228 311 184Q286 209 268 187Q218 228 192 196Q175 222 146 226Z" fill="#F6A4B6"></path><g data-layer="forelimbs" fill="#F7D8BE"><g transform="translate(152 338) scale(1 1)" data-layer="forelimbFar"><g class="pet-art-paw"><path d="M0 0C-25-2-22 21-33 26C-45 33-37 47-23 44C-22 60-3 65 4 49C23 58 35 42 22 29C29 13 16 0 0 0Z"></path><path d="M-8 29L-7 37M6 28L8 35" fill="none" stroke-width="6"></path></g></g><g transform="translate(360 338) scale(-1 1)" data-layer="forelimbNear"><g class="pet-art-paw"><path d="M0 0C-25-2-22 21-33 26C-45 33-37 47-23 44C-22 60-3 65 4 49C23 58 35 42 22 29C29 13 16 0 0 0Z"></path><path d="M-8 29L-7 37M6 28L8 35" fill="none" stroke-width="6"></path></g></g></g><g data-layer="face" stroke="#5B3D45" fill="#5B3D45"><g class="pet-art-eyes"><g><ellipse cx="211" cy="264" rx="10" ry="15" stroke="none"></ellipse><circle cx="208" cy="258" r="3.5" fill="#FFF4DD" stroke="none"></circle></g><g><ellipse cx="305" cy="264" rx="10" ry="15" stroke="none"></ellipse><circle cx="302" cy="258" r="3.5" fill="#FFF4DD" stroke="none"></circle></g></g><path d="M245 293Q259 306 274 293" fill="none" stroke-width="7"></path></g><g data-layer="cheeks" fill="#F6A4B6" stroke="none" opacity=".8"><ellipse cx="187" cy="291" rx="18" ry="9"></ellipse><ellipse cx="330" cy="291" rx="18" ry="9"></ellipse></g><path data-layer="highlight" d="M170 224Q176 191 198 184" fill="none" stroke="#FFF4DD" stroke-width="12" opacity=".8"></path></g></svg>